<svg preserveAspectRatio="none" overflow="visible" style="display: block;" width="31" height="31" viewBox="0 0 31 31" fill="none" xmlns="http://www.w3.org/2000/svg">
<g id="ChatCenteredDots">
<path id="Vector" d="M14.0469 14.5312C14.0469 14.2438 14.1321 13.9629 14.2918 13.7239C14.4514 13.485 14.6784 13.2987 14.9439 13.1887C15.2094 13.0788 15.5016 13.05 15.7835 13.106C16.0654 13.1621 16.3243 13.3005 16.5275 13.5037C16.7307 13.707 16.8691 13.9659 16.9252 14.2478C16.9813 14.5296 16.9525 14.8218 16.8425 15.0873C16.7325 15.3529 16.5463 15.5798 16.3073 15.7395C16.0683 15.8992 15.7874 15.9844 15.5 15.9844C15.1146 15.9844 14.745 15.8313 14.4725 15.5588C14.2 15.2863 14.0469 14.9166 14.0469 14.5312ZM10.1719 15.9844C10.4593 15.9844 10.7402 15.8992 10.9792 15.7395C11.2182 15.5798 11.4044 15.3529 11.5144 15.0873C11.6244 14.8218 11.6531 14.5296 11.5971 14.2478C11.541 13.9659 11.4026 13.707 11.1994 13.5037C10.9962 13.3005 10.7372 13.1621 10.4554 13.106C10.1735 13.05 9.88131 13.0788 9.61579 13.1887C9.35026 13.2987 9.12332 13.485 8.96365 13.7239C8.80397 13.9629 8.71875 14.2438 8.71875 14.5312C8.71875 14.9166 8.87185 15.2863 9.14436 15.5588C9.41687 15.8313 9.78648 15.9844 10.1719 15.9844ZM20.8281 15.9844C21.1155 15.9844 21.3965 15.8992 21.6354 15.7395C21.8744 15.5798 22.0607 15.3529 22.1706 15.0873C22.2806 14.8218 22.3094 14.5296 22.2533 14.2478C22.1973 13.9659 22.0589 13.707 21.8556 13.5037C21.6524 13.3005 21.3935 13.1621 21.1116 13.106C20.8297 13.05 20.5376 13.0788 20.272 13.1887C20.0065 13.2987 19.7796 13.485 19.6199 13.7239C19.4602 13.9629 19.375 14.2438 19.375 14.5312C19.375 14.9166 19.5281 15.2863 19.8006 15.5588C20.0731 15.8313 20.4427 15.9844 20.8281 15.9844ZM28.0938 6.78125V22.2812C28.0938 22.7951 27.8896 23.2879 27.5263 23.6513C27.1629 24.0146 26.6701 24.2188 26.1562 24.2188H18.8386L17.182 27.1177C17.0125 27.4142 16.7677 27.6606 16.4723 27.8319C16.1769 28.0033 15.8415 28.0936 15.5 28.0936C15.1585 28.0936 14.8231 28.0033 14.5277 27.8319C14.2323 27.6606 13.9875 27.4142 13.818 27.1177L12.1614 24.2188H4.84375C4.32989 24.2188 3.83708 24.0146 3.47373 23.6513C3.11038 23.2879 2.90625 22.7951 2.90625 22.2812V6.78125C2.90625 6.26739 3.11038 5.77458 3.47373 5.41123C3.83708 5.04788 4.32989 4.84375 4.84375 4.84375H26.1562C26.6701 4.84375 27.1629 5.04788 27.5263 5.41123C27.8896 5.77458 28.0938 6.26739 28.0938 6.78125ZM26.1562 6.78125H4.84375V22.2812H12.7233C12.8948 22.2797 13.0637 22.3237 13.2126 22.4089C13.3616 22.494 13.4852 22.6171 13.571 22.7656L15.5085 26.1562L17.446 22.7656C17.5317 22.6171 17.6554 22.494 17.8043 22.4089C17.9533 22.3237 18.1221 22.2797 18.2936 22.2812H26.1562V6.78125Z" fill="#65676B"/>
</g>
</svg>
